<?xml version="1.0" encoding="UTF-8"?>
<svg width="1200pt" height="1200pt" version="1.1" viewBox="0 0 1200 1200" xmlns="http://www.w3.org/2000/svg">
 <path d="m792 401.68c3.3398 3.3555 5.2188 7.8984 5.2188 12.633s-1.8789 9.2773-5.2188 12.633l-225.66 225.47c-4.4766 4.4883-11.008 6.2461-17.133 4.6133-6.125-1.6328-10.914-6.4102-12.562-12.531s0.09375-12.656 4.5703-17.145l225.61-225.68c3.3555-3.2812 7.8633-5.1172 12.559-5.1172 4.6914 0 9.1992 1.8359 12.555 5.1172zm-384 117.65c3.3711 3.2578 7.875 5.0781 12.562 5.0781s9.1914-1.8203 12.562-5.0781l225.6-225.74h-0.003906c4.4766-4.4883 6.2227-11.02 4.5742-17.141-1.6445-6.1211-6.4297-10.898-12.555-12.531-6.1211-1.6328-12.652 0.125-17.129 4.6094l-225.61 225.57c-3.3398 3.3555-5.2188 7.8984-5.2188 12.633 0 4.7344 1.8789 9.2773 5.2188 12.629zm-27.5 160.7c3.3711 3.2539 7.8711 5.0742 12.559 5.0742 4.6836 0 9.1875-1.8203 12.555-5.0742l413.87-413.89c4.5156-4.4883 6.293-11.039 4.6641-17.191-1.6289-6.1484-6.4141-10.965-12.555-12.629-6.1445-1.668-12.707 0.070313-17.219 4.5547l-413.88 413.93c-3.3516 3.3477-5.2383 7.8906-5.2383 12.633 0 4.7383 1.8867 9.2812 5.2383 12.629zm237.35 171.79c0.007813 4.7109-1.8555 9.2344-5.1797 12.574-3.3203 3.3398-7.8359 5.2266-12.547 5.2461-4.7109 0.019531-9.2383-1.832-12.59-5.1445-3.3477-3.3164-5.2461-7.8242-5.2773-12.535-0.03125-4.7109 1.8086-9.2422 5.1133-12.602 3.3047-3.3594 7.8086-5.2695 12.52-5.3125h0.20312c4.7188-0.019531 9.25 1.8477 12.582 5.1836 3.3359 3.3359 5.1992 7.8711 5.1758 12.59zm477.31 34.598c10.016 0.003906 19.617-3.9766 26.695-11.059 7.0742-7.082 11.047-16.688 11.035-26.699v-31.402h-1065.8v31.418c-0.007812 10.008 3.9648 19.609 11.043 26.691 7.0742 7.0781 16.676 11.055 26.688 11.051zm-389.05 103.74h-212.21v-68.211h212.21zm59.508 47.117v23.48h-331.24v-23.48c0.039062-6.3594 5.1641-11.516 11.52-11.598h308.21c6.3555 0.082031 11.484 5.2266 11.547 11.582zm-660.77-898.04c-10.012 0.015625-19.605 4-26.68 11.078-7.0781 7.0742-11.062 16.668-11.078 26.676v604.73h1065.8v-604.73c-0.015625-10.004-3.9961-19.594-11.066-26.668-7.0703-7.0781-16.66-11.062-26.664-11.086zm990.31-35.531h-990.31c-19.418 0.046875-38.027 7.7773-51.754 21.508-13.73 13.73-21.465 32.336-21.512 51.754v671.7c0.019531 19.426 7.7461 38.047 21.48 51.785 13.734 13.734 32.359 21.461 51.785 21.48h353.49v68.211h-12.441c-12.488 0.011719-24.461 4.9805-33.289 13.816-8.8242 8.832-13.785 20.809-13.789 33.297v41.242c-0.003906 4.7148 1.8672 9.2383 5.2031 12.57 3.332 3.3359 7.8555 5.207 12.57 5.2031h366.81c4.7148 0.003907 9.2383-1.8672 12.57-5.2031 3.332-3.332 5.207-7.8555 5.2031-12.57v-41.215c-0.003906-12.488-4.9609-24.461-13.785-33.297-8.8281-8.832-20.797-13.805-33.281-13.82h-12.441v-68.211h353.49c19.426-0.023437 38.047-7.75 51.781-21.484s21.461-32.355 21.484-51.777v-671.7c-0.039063-19.418-7.7734-38.035-21.5-51.77-13.73-13.734-32.344-21.469-51.766-21.516z" fill-rule="evenodd"/>
</svg>
